<?xml version="1.0" encoding="utf-8" standalone="no"?>
<!DOCTYPE svg PUBLIC "-//W3C//DTD SVG 1.1//EN"
  "http://www.w3.org/Graphics/SVG/1.1/DTD/svg11.dtd">
<!-- Created with matplotlib (https://matplotlib.org/) -->
<svg height="864pt" version="1.1" viewBox="0 0 1728 864" width="1728pt" xmlns="http://www.w3.org/2000/svg" xmlns:xlink="http://www.w3.org/1999/xlink">
 <metadata>
  <rdf:RDF xmlns:cc="http://creativecommons.org/ns#" xmlns:dc="http://purl.org/dc/elements/1.1/" xmlns:rdf="http://www.w3.org/1999/02/22-rdf-syntax-ns#">
   <cc:Work>
    <dc:type rdf:resource="http://purl.org/dc/dcmitype/StillImage"/>
    <dc:date>2020-12-02T19:11:09.314996</dc:date>
    <dc:format>image/svg+xml</dc:format>
    <dc:creator>
     <cc:Agent>
      <dc:title>Matplotlib v3.3.2, https://matplotlib.org/</dc:title>
     </cc:Agent>
    </dc:creator>
   </cc:Work>
  </rdf:RDF>
 </metadata>
 <defs>
  <style type="text/css">*{stroke-linecap:butt;stroke-linejoin:round;}</style>
 </defs>
 <g id="figure_1">
  <g id="patch_1">
   <path d="M 0 864 
L 1728 864 
L 1728 0 
L 0 0 
z
" style="fill:#ffffff;"/>
  </g>
  <g id="axes_1">
   <g id="patch_2">
    <path d="M 465.96 851.04 
L 1262.04 851.04 
L 1262.04 54.96 
L 465.96 54.96 
z
" style="fill:#eaeaf2;"/>
   </g>
   <g id="matplotlib.axis_1"/>
   <g id="matplotlib.axis_2">
    <g id="ytick_1">
     <g id="text_1">
      <!-- GLOBAL COGNITIVE  -->
      <g style="fill:#262626;" transform="translate(148.655313 768.471844)scale(0.3 -0.3)">
       <defs>
        <path d="M 40.578125 26.3125 
L 40.578125 38.375 
L 71.734375 38.375 
L 71.734375 9.859375 
Q 67.1875 5.46875 58.5625 2.125 
Q 49.953125 -1.21875 41.109375 -1.21875 
Q 29.890625 -1.21875 21.53125 3.484375 
Q 13.1875 8.203125 8.984375 16.96875 
Q 4.78125 25.734375 4.78125 36.03125 
Q 4.78125 47.21875 9.46875 55.90625 
Q 14.15625 64.59375 23.1875 69.234375 
Q 30.078125 72.796875 40.328125 72.796875 
Q 53.65625 72.796875 61.15625 67.203125 
Q 68.65625 61.625 70.796875 51.765625 
L 56.453125 49.078125 
Q 54.9375 54.34375 50.75 57.390625 
Q 46.578125 60.453125 40.328125 60.453125 
Q 30.859375 60.453125 25.265625 54.4375 
Q 19.671875 48.4375 19.671875 36.625 
Q 19.671875 23.875 25.328125 17.5 
Q 31 11.140625 40.1875 11.140625 
Q 44.734375 11.140625 49.296875 12.921875 
Q 53.859375 14.703125 57.125 17.234375 
L 57.125 26.3125 
z
" id="Arial-BoldMT-71"/>
        <path d="M 7.671875 0 
L 7.671875 71 
L 22.125 71 
L 22.125 12.0625 
L 58.0625 12.0625 
L 58.0625 0 
z
" id="Arial-BoldMT-76"/>
        <path d="M 4.34375 35.359375 
Q 4.34375 46.296875 7.625 53.71875 
Q 10.0625 59.1875 14.28125 63.53125 
Q 18.5 67.875 23.53125 69.96875 
Q 30.21875 72.796875 38.96875 72.796875 
Q 54.78125 72.796875 64.28125 62.984375 
Q 73.78125 53.171875 73.78125 35.6875 
Q 73.78125 18.359375 64.359375 8.5625 
Q 54.9375 -1.21875 39.15625 -1.21875 
Q 23.1875 -1.21875 13.765625 8.515625 
Q 4.34375 18.265625 4.34375 35.359375 
z
M 19.234375 35.84375 
Q 19.234375 23.6875 24.84375 17.40625 
Q 30.46875 11.140625 39.109375 11.140625 
Q 47.75 11.140625 53.296875 17.359375 
Q 58.84375 23.578125 58.84375 36.03125 
Q 58.84375 48.34375 53.4375 54.390625 
Q 48.046875 60.453125 39.109375 60.453125 
Q 30.171875 60.453125 24.703125 54.3125 
Q 19.234375 48.1875 19.234375 35.84375 
z
" id="Arial-BoldMT-79"/>
        <path d="M 7.328125 71.578125 
L 35.9375 71.578125 
Q 44.4375 71.578125 48.609375 70.875 
Q 52.78125 70.171875 56.078125 67.921875 
Q 59.375 65.671875 61.5625 61.9375 
Q 63.765625 58.203125 63.765625 53.5625 
Q 63.765625 48.53125 61.046875 44.328125 
Q 58.34375 40.140625 53.71875 38.03125 
Q 60.25 36.140625 63.765625 31.546875 
Q 67.28125 26.953125 67.28125 20.75 
Q 67.28125 15.875 65.015625 11.25 
Q 62.75 6.640625 58.8125 3.875 
Q 54.890625 1.125 49.125 0.484375 
Q 45.515625 0.09375 31.6875 0 
L 7.328125 0 
z
M 21.78125 59.671875 
L 21.78125 43.109375 
L 31.25 43.109375 
Q 39.703125 43.109375 41.75 43.359375 
Q 45.453125 43.796875 47.578125 45.921875 
Q 49.703125 48.046875 49.703125 51.515625 
Q 49.703125 54.828125 47.875 56.90625 
Q 46.046875 58.984375 42.4375 59.421875 
Q 40.28125 59.671875 30.078125 59.671875 
z
M 21.78125 31.203125 
L 21.78125 12.0625 
L 35.15625 12.0625 
Q 42.96875 12.0625 45.0625 12.5 
Q 48.296875 13.09375 50.3125 15.359375 
Q 52.34375 17.625 52.34375 21.4375 
Q 52.34375 24.65625 50.78125 26.90625 
Q 49.21875 29.15625 46.265625 30.171875 
Q 43.3125 31.203125 33.453125 31.203125 
z
" id="Arial-BoldMT-66"/>
        <path d="M 71.828125 0 
L 56.109375 0 
L 49.859375 16.265625 
L 21.234375 16.265625 
L 15.328125 0 
L 0 0 
L 27.875 71.578125 
L 43.171875 71.578125 
z
M 45.21875 28.328125 
L 35.359375 54.890625 
L 25.6875 28.328125 
z
" id="Arial-BoldMT-65"/>
        <path id="Arial-BoldMT-32"/>
        <path d="M 53.078125 26.3125 
L 67.09375 21.875 
Q 63.875 10.15625 56.375 4.46875 
Q 48.875 -1.21875 37.359375 -1.21875 
Q 23.09375 -1.21875 13.90625 8.515625 
Q 4.734375 18.265625 4.734375 35.15625 
Q 4.734375 53.03125 13.953125 62.90625 
Q 23.1875 72.796875 38.234375 72.796875 
Q 51.375 72.796875 59.578125 65.046875 
Q 64.453125 60.453125 66.890625 51.859375 
L 52.59375 48.4375 
Q 51.3125 54 47.28125 57.21875 
Q 43.265625 60.453125 37.5 60.453125 
Q 29.546875 60.453125 24.578125 54.734375 
Q 19.625 49.03125 19.625 36.234375 
Q 19.625 22.65625 24.5 16.890625 
Q 29.390625 11.140625 37.203125 11.140625 
Q 42.96875 11.140625 47.109375 14.796875 
Q 51.265625 18.453125 53.078125 26.3125 
z
" id="Arial-BoldMT-67"/>
        <path d="M 7.421875 0 
L 7.421875 71.578125 
L 21.484375 71.578125 
L 50.78125 23.78125 
L 50.78125 71.578125 
L 64.203125 71.578125 
L 64.203125 0 
L 49.703125 0 
L 20.84375 46.6875 
L 20.84375 0 
z
" id="Arial-BoldMT-78"/>
        <path d="M 6.84375 0 
L 6.84375 71.578125 
L 21.296875 71.578125 
L 21.296875 0 
z
" id="Arial-BoldMT-73"/>
        <path d="M 23.390625 0 
L 23.390625 59.46875 
L 2.15625 59.46875 
L 2.15625 71.578125 
L 59.03125 71.578125 
L 59.03125 59.46875 
L 37.84375 59.46875 
L 37.84375 0 
z
" id="Arial-BoldMT-84"/>
        <path d="M 25.53125 0 
L -0.046875 71.578125 
L 15.625 71.578125 
L 33.734375 18.609375 
L 51.265625 71.578125 
L 66.609375 71.578125 
L 40.96875 0 
z
" id="Arial-BoldMT-86"/>
        <path d="M 7.28125 0 
L 7.28125 71.578125 
L 60.359375 71.578125 
L 60.359375 59.46875 
L 21.734375 59.46875 
L 21.734375 43.609375 
L 57.671875 43.609375 
L 57.671875 31.546875 
L 21.734375 31.546875 
L 21.734375 12.0625 
L 61.71875 12.0625 
L 61.71875 0 
z
" id="Arial-BoldMT-69"/>
       </defs>
       <use xlink:href="#Arial-BoldMT-71"/>
       <use x="77.783203" xlink:href="#Arial-BoldMT-76"/>
       <use x="138.867188" xlink:href="#Arial-BoldMT-79"/>
       <use x="216.650391" xlink:href="#Arial-BoldMT-66"/>
       <use x="288.867188" xlink:href="#Arial-BoldMT-65"/>
       <use x="361.083984" xlink:href="#Arial-BoldMT-76"/>
       <use x="420.417969" xlink:href="#Arial-BoldMT-32"/>
       <use x="448.201172" xlink:href="#Arial-BoldMT-67"/>
       <use x="520.417969" xlink:href="#Arial-BoldMT-79"/>
       <use x="598.201172" xlink:href="#Arial-BoldMT-71"/>
       <use x="675.984375" xlink:href="#Arial-BoldMT-78"/>
       <use x="748.201172" xlink:href="#Arial-BoldMT-73"/>
       <use x="775.984375" xlink:href="#Arial-BoldMT-84"/>
       <use x="837.068359" xlink:href="#Arial-BoldMT-73"/>
       <use x="864.851562" xlink:href="#Arial-BoldMT-86"/>
       <use x="931.550781" xlink:href="#Arial-BoldMT-69"/>
       <use x="998.25" xlink:href="#Arial-BoldMT-32"/>
      </g>
      <!--  FUNCTION -->
      <g style="fill:#262626;" transform="translate(293.1475 800.160281)scale(0.3 -0.3)">
       <defs>
        <path d="M 7.375 0 
L 7.375 71.578125 
L 56.453125 71.578125 
L 56.453125 59.46875 
L 21.828125 59.46875 
L 21.828125 42.53125 
L 51.703125 42.53125 
L 51.703125 30.421875 
L 21.828125 30.421875 
L 21.828125 0 
z
" id="Arial-BoldMT-70"/>
        <path d="M 7.171875 71.578125 
L 21.625 71.578125 
L 21.625 32.8125 
Q 21.625 23.578125 22.171875 20.84375 
Q 23.09375 16.453125 26.578125 13.796875 
Q 30.078125 11.140625 36.140625 11.140625 
Q 42.28125 11.140625 45.40625 13.640625 
Q 48.53125 16.15625 49.171875 19.8125 
Q 49.8125 23.484375 49.8125 31.984375 
L 49.8125 71.578125 
L 64.265625 71.578125 
L 64.265625 33.984375 
Q 64.265625 21.09375 63.09375 15.765625 
Q 61.921875 10.453125 58.765625 6.78125 
Q 55.609375 3.125 50.328125 0.953125 
Q 45.0625 -1.21875 36.578125 -1.21875 
Q 26.3125 -1.21875 21.015625 1.140625 
Q 15.71875 3.515625 12.640625 7.296875 
Q 9.578125 11.078125 8.59375 15.234375 
Q 7.171875 21.390625 7.171875 33.40625 
z
" id="Arial-BoldMT-85"/>
       </defs>
       <use xlink:href="#Arial-BoldMT-32"/>
       <use x="27.783203" xlink:href="#Arial-BoldMT-70"/>
       <use x="88.867188" xlink:href="#Arial-BoldMT-85"/>
       <use x="161.083984" xlink:href="#Arial-BoldMT-78"/>
       <use x="233.300781" xlink:href="#Arial-BoldMT-67"/>
       <use x="305.517578" xlink:href="#Arial-BoldMT-84"/>
       <use x="366.601562" xlink:href="#Arial-BoldMT-73"/>
       <use x="394.384766" xlink:href="#Arial-BoldMT-79"/>
       <use x="472.167969" xlink:href="#Arial-BoldMT-78"/>
      </g>
     </g>
    </g>
    <g id="ytick_2">
     <g id="text_2">
      <!-- CRYSTALLIZED   -->
      <g style="fill:#262626;" transform="translate(214.805313 609.255844)scale(0.3 -0.3)">
       <defs>
        <path d="M 7.328125 0 
L 7.328125 71.578125 
L 37.75 71.578125 
Q 49.21875 71.578125 54.421875 69.640625 
Q 59.625 67.71875 62.75 62.78125 
Q 65.875 57.859375 65.875 51.515625 
Q 65.875 43.453125 61.125 38.203125 
Q 56.390625 32.953125 46.96875 31.59375 
Q 51.65625 28.859375 54.703125 25.578125 
Q 57.765625 22.3125 62.9375 13.96875 
L 71.6875 0 
L 54.390625 0 
L 43.953125 15.578125 
Q 38.375 23.921875 36.328125 26.09375 
Q 34.28125 28.265625 31.984375 29.078125 
Q 29.6875 29.890625 24.703125 29.890625 
L 21.78125 29.890625 
L 21.78125 0 
z
M 21.78125 41.3125 
L 32.46875 41.3125 
Q 42.875 41.3125 45.453125 42.1875 
Q 48.046875 43.0625 49.515625 45.203125 
Q 50.984375 47.359375 50.984375 50.59375 
Q 50.984375 54.203125 49.046875 56.421875 
Q 47.125 58.640625 43.609375 59.234375 
Q 41.84375 59.46875 33.0625 59.46875 
L 21.78125 59.46875 
z
" id="Arial-BoldMT-82"/>
        <path d="M 26.078125 0 
L 26.078125 30.125 
L -0.140625 71.578125 
L 16.796875 71.578125 
L 33.640625 43.265625 
L 50.140625 71.578125 
L 66.796875 71.578125 
L 40.484375 30.03125 
L 40.484375 0 
z
" id="Arial-BoldMT-89"/>
        <path d="M 3.609375 23.296875 
L 17.671875 24.65625 
Q 18.953125 17.578125 22.828125 14.25 
Q 26.703125 10.9375 33.296875 10.9375 
Q 40.28125 10.9375 43.8125 13.890625 
Q 47.359375 16.84375 47.359375 20.796875 
Q 47.359375 23.34375 45.875 25.125 
Q 44.390625 26.90625 40.671875 28.21875 
Q 38.140625 29.109375 29.109375 31.34375 
Q 17.484375 34.234375 12.796875 38.421875 
Q 6.203125 44.34375 6.203125 52.828125 
Q 6.203125 58.296875 9.296875 63.0625 
Q 12.40625 67.828125 18.234375 70.3125 
Q 24.078125 72.796875 32.328125 72.796875 
Q 45.796875 72.796875 52.609375 66.890625 
Q 59.421875 60.984375 59.765625 51.125 
L 45.3125 50.484375 
Q 44.390625 56 41.328125 58.421875 
Q 38.28125 60.84375 32.171875 60.84375 
Q 25.875 60.84375 22.3125 58.25 
Q 20.015625 56.59375 20.015625 53.8125 
Q 20.015625 51.265625 22.171875 49.46875 
Q 24.90625 47.171875 35.453125 44.671875 
Q 46 42.1875 51.046875 39.515625 
Q 56.109375 36.859375 58.953125 32.25 
Q 61.8125 27.640625 61.8125 20.84375 
Q 61.8125 14.703125 58.390625 9.328125 
Q 54.984375 3.953125 48.734375 1.34375 
Q 42.484375 -1.265625 33.15625 -1.265625 
Q 19.578125 -1.265625 12.296875 5 
Q 5.03125 11.28125 3.609375 23.296875 
z
" id="Arial-BoldMT-83"/>
        <path d="M 1.078125 0 
L 1.078125 13.03125 
L 38.671875 59.46875 
L 5.328125 59.46875 
L 5.328125 71.578125 
L 57.71875 71.578125 
L 57.71875 60.359375 
L 18.5 12.0625 
L 59.234375 12.0625 
L 59.234375 0 
z
" id="Arial-BoldMT-90"/>
        <path d="M 7.234375 71.578125 
L 33.640625 71.578125 
Q 42.578125 71.578125 47.265625 70.21875 
Q 53.5625 68.359375 58.046875 63.625 
Q 62.546875 58.890625 64.890625 52.03125 
Q 67.234375 45.171875 67.234375 35.109375 
Q 67.234375 26.265625 65.046875 19.875 
Q 62.359375 12.0625 57.375 7.234375 
Q 53.609375 3.5625 47.21875 1.515625 
Q 42.4375 0 34.421875 0 
L 7.234375 0 
z
M 21.6875 59.46875 
L 21.6875 12.0625 
L 32.46875 12.0625 
Q 38.53125 12.0625 41.21875 12.75 
Q 44.734375 13.625 47.046875 15.71875 
Q 49.359375 17.828125 50.828125 22.625 
Q 52.296875 27.4375 52.296875 35.75 
Q 52.296875 44.046875 50.828125 48.484375 
Q 49.359375 52.9375 46.71875 55.421875 
Q 44.09375 57.90625 40.046875 58.796875 
Q 37.015625 59.46875 28.171875 59.46875 
z
" id="Arial-BoldMT-68"/>
       </defs>
       <use xlink:href="#Arial-BoldMT-67"/>
       <use x="72.216797" xlink:href="#Arial-BoldMT-82"/>
       <use x="140.683594" xlink:href="#Arial-BoldMT-89"/>
       <use x="207.382812" xlink:href="#Arial-BoldMT-83"/>
       <use x="274.082031" xlink:href="#Arial-BoldMT-84"/>
       <use x="327.791016" xlink:href="#Arial-BoldMT-65"/>
       <use x="400.007812" xlink:href="#Arial-BoldMT-76"/>
       <use x="461.091797" xlink:href="#Arial-BoldMT-76"/>
       <use x="522.175781" xlink:href="#Arial-BoldMT-73"/>
       <use x="549.958984" xlink:href="#Arial-BoldMT-90"/>
       <use x="611.042969" xlink:href="#Arial-BoldMT-69"/>
       <use x="677.742188" xlink:href="#Arial-BoldMT-68"/>
       <use x="749.958984" xlink:href="#Arial-BoldMT-32"/>
       <use x="777.742188" xlink:href="#Arial-BoldMT-32"/>
      </g>
      <!--  INTELLIGENCE -->
      <g style="fill:#262626;" transform="translate(228.1225 640.944281)scale(0.3 -0.3)">
       <use xlink:href="#Arial-BoldMT-32"/>
       <use x="27.783203" xlink:href="#Arial-BoldMT-73"/>
       <use x="55.566406" xlink:href="#Arial-BoldMT-78"/>
       <use x="127.783203" xlink:href="#Arial-BoldMT-84"/>
       <use x="188.867188" xlink:href="#Arial-BoldMT-69"/>
       <use x="255.566406" xlink:href="#Arial-BoldMT-76"/>
       <use x="316.650391" xlink:href="#Arial-BoldMT-76"/>
       <use x="377.734375" xlink:href="#Arial-BoldMT-73"/>
       <use x="405.517578" xlink:href="#Arial-BoldMT-71"/>
       <use x="483.300781" xlink:href="#Arial-BoldMT-69"/>
       <use x="550" xlink:href="#Arial-BoldMT-78"/>
       <use x="622.216797" xlink:href="#Arial-BoldMT-67"/>
       <use x="694.433594" xlink:href="#Arial-BoldMT-69"/>
      </g>
     </g>
    </g>
    <g id="ytick_3">
     <g id="text_3">
      <!-- FLUID  -->
      <g style="fill:#262626;" transform="translate(359.813125 450.039844)scale(0.3 -0.3)">
       <use xlink:href="#Arial-BoldMT-70"/>
       <use x="61.083984" xlink:href="#Arial-BoldMT-76"/>
       <use x="122.167969" xlink:href="#Arial-BoldMT-85"/>
       <use x="194.384766" xlink:href="#Arial-BoldMT-73"/>
       <use x="222.167969" xlink:href="#Arial-BoldMT-68"/>
       <use x="294.384766" xlink:href="#Arial-BoldMT-32"/>
      </g>
      <!--  INTELLIGENCE -->
      <g style="fill:#262626;" transform="translate(228.1225 481.728281)scale(0.3 -0.3)">
       <use xlink:href="#Arial-BoldMT-32"/>
       <use x="27.783203" xlink:href="#Arial-BoldMT-73"/>
       <use x="55.566406" xlink:href="#Arial-BoldMT-78"/>
       <use x="127.783203" xlink:href="#Arial-BoldMT-84"/>
       <use x="188.867188" xlink:href="#Arial-BoldMT-69"/>
       <use x="255.566406" xlink:href="#Arial-BoldMT-76"/>
       <use x="316.650391" xlink:href="#Arial-BoldMT-76"/>
       <use x="377.734375" xlink:href="#Arial-BoldMT-73"/>
       <use x="405.517578" xlink:href="#Arial-BoldMT-71"/>
       <use x="483.300781" xlink:href="#Arial-BoldMT-69"/>
       <use x="550" xlink:href="#Arial-BoldMT-78"/>
       <use x="622.216797" xlink:href="#Arial-BoldMT-67"/>
       <use x="694.433594" xlink:href="#Arial-BoldMT-69"/>
      </g>
     </g>
    </g>
    <g id="ytick_4">
     <g id="text_4">
      <!-- SPATIAL  -->
      <g style="fill:#262626;" transform="translate(324.74125 290.823844)scale(0.3 -0.3)">
       <defs>
        <path d="M 7.28125 0 
L 7.28125 71.578125 
L 30.46875 71.578125 
Q 43.65625 71.578125 47.65625 70.515625 
Q 53.8125 68.890625 57.953125 63.5 
Q 62.109375 58.109375 62.109375 49.5625 
Q 62.109375 42.96875 59.71875 38.46875 
Q 57.328125 33.984375 53.640625 31.421875 
Q 49.953125 28.859375 46.140625 28.03125 
Q 40.96875 27 31.15625 27 
L 21.734375 27 
L 21.734375 0 
z
M 21.734375 59.46875 
L 21.734375 39.15625 
L 29.640625 39.15625 
Q 38.1875 39.15625 41.0625 40.28125 
Q 43.953125 41.40625 45.578125 43.796875 
Q 47.21875 46.1875 47.21875 49.359375 
Q 47.21875 53.265625 44.921875 55.796875 
Q 42.625 58.34375 39.109375 58.984375 
Q 36.53125 59.46875 28.71875 59.46875 
z
" id="Arial-BoldMT-80"/>
       </defs>
       <use xlink:href="#Arial-BoldMT-83"/>
       <use x="66.699219" xlink:href="#Arial-BoldMT-80"/>
       <use x="126.023438" xlink:href="#Arial-BoldMT-65"/>
       <use x="190.865234" xlink:href="#Arial-BoldMT-84"/>
       <use x="251.949219" xlink:href="#Arial-BoldMT-73"/>
       <use x="279.732422" xlink:href="#Arial-BoldMT-65"/>
       <use x="351.949219" xlink:href="#Arial-BoldMT-76"/>
       <use x="411.283203" xlink:href="#Arial-BoldMT-32"/>
      </g>
      <!--  ORIENTATION -->
      <g style="fill:#262626;" transform="translate(245.892813 322.512281)scale(0.3 -0.3)">
       <use xlink:href="#Arial-BoldMT-32"/>
       <use x="27.783203" xlink:href="#Arial-BoldMT-79"/>
       <use x="105.566406" xlink:href="#Arial-BoldMT-82"/>
       <use x="177.783203" xlink:href="#Arial-BoldMT-73"/>
       <use x="205.566406" xlink:href="#Arial-BoldMT-69"/>
       <use x="272.265625" xlink:href="#Arial-BoldMT-78"/>
       <use x="344.482422" xlink:href="#Arial-BoldMT-84"/>
       <use x="398.191406" xlink:href="#Arial-BoldMT-65"/>
       <use x="463.033203" xlink:href="#Arial-BoldMT-84"/>
       <use x="524.117188" xlink:href="#Arial-BoldMT-73"/>
       <use x="551.900391" xlink:href="#Arial-BoldMT-79"/>
       <use x="629.683594" xlink:href="#Arial-BoldMT-78"/>
      </g>
     </g>
    </g>
    <g id="ytick_5">
     <g id="text_5">
      <!-- IMPULSIVITY -->
      <g style="fill:#262626;" transform="translate(268.111563 145.304719)scale(0.3 -0.3)">
       <defs>
        <path d="M 7.078125 0 
L 7.078125 71.578125 
L 28.71875 71.578125 
L 41.703125 22.75 
L 54.546875 71.578125 
L 76.21875 71.578125 
L 76.21875 0 
L 62.796875 0 
L 62.796875 56.34375 
L 48.578125 0 
L 34.671875 0 
L 20.515625 56.34375 
L 20.515625 0 
z
" id="Arial-BoldMT-77"/>
       </defs>
       <use xlink:href="#Arial-BoldMT-73"/>
       <use x="27.783203" xlink:href="#Arial-BoldMT-77"/>
       <use x="111.083984" xlink:href="#Arial-BoldMT-80"/>
       <use x="177.783203" xlink:href="#Arial-BoldMT-85"/>
       <use x="250" xlink:href="#Arial-BoldMT-76"/>
       <use x="311.083984" xlink:href="#Arial-BoldMT-83"/>
       <use x="377.783203" xlink:href="#Arial-BoldMT-73"/>
       <use x="405.566406" xlink:href="#Arial-BoldMT-86"/>
       <use x="472.265625" xlink:href="#Arial-BoldMT-73"/>
       <use x="500.048828" xlink:href="#Arial-BoldMT-84"/>
       <use x="561.132812" xlink:href="#Arial-BoldMT-89"/>
      </g>
     </g>
    </g>
   </g>
   <g id="QuadMesh_1">
    <path clip-path="url(#p3e14723b10)" d="M 465.96 851.04 
L 625.176 851.04 
L 625.176 691.824 
L 465.96 691.824 
L 465.96 851.04 
" style="fill:#fde725;"/>
    <path clip-path="url(#p3e14723b10)" d="M 625.176 851.04 
L 784.392 851.04 
L 784.392 691.824 
L 625.176 691.824 
L 625.176 851.04 
" style="fill:#4cc26c;"/>
    <path clip-path="url(#p3e14723b10)" d="M 784.392 851.04 
L 943.608 851.04 
L 943.608 691.824 
L 784.392 691.824 
L 784.392 851.04 
" style="fill:#1fa088;"/>
    <path clip-path="url(#p3e14723b10)" d="M 943.608 851.04 
L 1102.824 851.04 
L 1102.824 691.824 
L 943.608 691.824 
L 943.608 851.04 
" style="fill:#1f968b;"/>
    <path clip-path="url(#p3e14723b10)" d="M 1102.824 851.04 
L 1262.04 851.04 
L 1262.04 691.824 
L 1102.824 691.824 
L 1102.824 851.04 
" style="fill:#38588c;"/>
    <path clip-path="url(#p3e14723b10)" d="M 465.96 691.824 
L 625.176 691.824 
L 625.176 532.608 
L 465.96 532.608 
L 465.96 691.824 
" style="fill:#4cc26c;"/>
    <path clip-path="url(#p3e14723b10)" d="M 625.176 691.824 
L 784.392 691.824 
L 784.392 532.608 
L 625.176 532.608 
L 625.176 691.824 
" style="fill:#fde725;"/>
    <path clip-path="url(#p3e14723b10)" d="M 784.392 691.824 
L 943.608 691.824 
L 943.608 532.608 
L 784.392 532.608 
L 784.392 691.824 
" style="fill:#34608d;"/>
    <path clip-path="url(#p3e14723b10)" d="M 943.608 691.824 
L 1102.824 691.824 
L 1102.824 532.608 
L 943.608 532.608 
L 943.608 691.824 
" style="fill:#297a8e;"/>
    <path clip-path="url(#p3e14723b10)" d="M 1102.824 691.824 
L 1262.04 691.824 
L 1262.04 532.608 
L 1102.824 532.608 
L 1102.824 691.824 
" style="fill:#2c728e;"/>
    <path clip-path="url(#p3e14723b10)" d="M 465.96 532.608 
L 625.176 532.608 
L 625.176 373.392 
L 465.96 373.392 
L 465.96 532.608 
" style="fill:#1fa088;"/>
    <path clip-path="url(#p3e14723b10)" d="M 625.176 532.608 
L 784.392 532.608 
L 784.392 373.392 
L 625.176 373.392 
L 625.176 532.608 
" style="fill:#34608d;"/>
    <path clip-path="url(#p3e14723b10)" d="M 784.392 532.608 
L 943.608 532.608 
L 943.608 373.392 
L 784.392 373.392 
L 784.392 532.608 
" style="fill:#fde725;"/>
    <path clip-path="url(#p3e14723b10)" d="M 943.608 532.608 
L 1102.824 532.608 
L 1102.824 373.392 
L 943.608 373.392 
L 943.608 532.608 
" style="fill:#1fa088;"/>
    <path clip-path="url(#p3e14723b10)" d="M 1102.824 532.608 
L 1262.04 532.608 
L 1262.04 373.392 
L 1102.824 373.392 
L 1102.824 532.608 
" style="fill:#440154;"/>
    <path clip-path="url(#p3e14723b10)" d="M 465.96 373.392 
L 625.176 373.392 
L 625.176 214.176 
L 465.96 214.176 
L 465.96 373.392 
" style="fill:#1f968b;"/>
    <path clip-path="url(#p3e14723b10)" d="M 625.176 373.392 
L 784.392 373.392 
L 784.392 214.176 
L 625.176 214.176 
L 625.176 373.392 
" style="fill:#297a8e;"/>
    <path clip-path="url(#p3e14723b10)" d="M 784.392 373.392 
L 943.608 373.392 
L 943.608 214.176 
L 784.392 214.176 
L 784.392 373.392 
" style="fill:#1fa088;"/>
    <path clip-path="url(#p3e14723b10)" d="M 943.608 373.392 
L 1102.824 373.392 
L 1102.824 214.176 
L 943.608 214.176 
L 943.608 373.392 
" style="fill:#fde725;"/>
    <path clip-path="url(#p3e14723b10)" d="M 1102.824 373.392 
L 1262.04 373.392 
L 1262.04 214.176 
L 1102.824 214.176 
L 1102.824 373.392 
" style="fill:#481a6c;"/>
    <path clip-path="url(#p3e14723b10)" d="M 465.96 214.176 
L 625.176 214.176 
L 625.176 54.96 
L 465.96 54.96 
L 465.96 214.176 
" style="fill:#38588c;"/>
    <path clip-path="url(#p3e14723b10)" d="M 625.176 214.176 
L 784.392 214.176 
L 784.392 54.96 
L 625.176 54.96 
L 625.176 214.176 
" style="fill:#2c728e;"/>
    <path clip-path="url(#p3e14723b10)" d="M 784.392 214.176 
L 943.608 214.176 
L 943.608 54.96 
L 784.392 54.96 
L 784.392 214.176 
" style="fill:#440154;"/>
    <path clip-path="url(#p3e14723b10)" d="M 943.608 214.176 
L 1102.824 214.176 
L 1102.824 54.96 
L 943.608 54.96 
L 943.608 214.176 
" style="fill:#481a6c;"/>
    <path clip-path="url(#p3e14723b10)" d="M 1102.824 214.176 
L 1262.04 214.176 
L 1262.04 54.96 
L 1102.824 54.96 
L 1102.824 214.176 
" style="fill:#fde725;"/>
   </g>
   <g id="text_6">
    <!-- 1 -->
    <g style="fill:#262626;" transform="translate(528.885188 786.985125)scale(0.6 -0.6)">
     <defs>
      <path d="M 39.359375 0 
L 25.640625 0 
L 25.640625 51.703125 
Q 18.109375 44.671875 7.90625 41.3125 
L 7.90625 53.765625 
Q 13.28125 55.515625 19.578125 60.421875 
Q 25.875 65.328125 28.21875 71.875 
L 39.359375 71.875 
z
" id="Arial-BoldMT-49"/>
     </defs>
     <use xlink:href="#Arial-BoldMT-49"/>
    </g>
   </g>
   <g id="text_7">
    <!-- 0.71 -->
    <g style="fill:#262626;" transform="translate(646.401188 786.985125)scale(0.6 -0.6)">
     <defs>
      <path d="M 27.4375 71.875 
Q 37.84375 71.875 43.703125 64.453125 
Q 50.6875 55.671875 50.6875 35.296875 
Q 50.6875 14.984375 43.65625 6.109375 
Q 37.84375 -1.21875 27.4375 -1.21875 
Q 17 -1.21875 10.59375 6.8125 
Q 4.203125 14.84375 4.203125 35.453125 
Q 4.203125 55.671875 11.234375 64.546875 
Q 17.046875 71.875 27.4375 71.875 
z
M 27.4375 60.5 
Q 24.953125 60.5 23 58.90625 
Q 21.046875 57.328125 19.96875 53.21875 
Q 18.5625 47.90625 18.5625 35.296875 
Q 18.5625 22.703125 19.828125 17.984375 
Q 21.09375 13.28125 23.015625 11.71875 
Q 24.953125 10.15625 27.4375 10.15625 
Q 29.9375 10.15625 31.890625 11.734375 
Q 33.84375 13.328125 34.90625 17.4375 
Q 36.328125 22.703125 36.328125 35.296875 
Q 36.328125 47.90625 35.0625 52.609375 
Q 33.796875 57.328125 31.859375 58.90625 
Q 29.9375 60.5 27.4375 60.5 
z
" id="Arial-BoldMT-48"/>
      <path d="M 7.171875 0 
L 7.171875 13.71875 
L 20.90625 13.71875 
L 20.90625 0 
z
" id="Arial-BoldMT-46"/>
      <path d="M 4.25 57.859375 
L 4.25 70.609375 
L 51.171875 70.609375 
L 51.171875 60.640625 
Q 45.359375 54.9375 39.34375 44.234375 
Q 33.34375 33.546875 30.1875 21.5 
Q 27.046875 9.46875 27.09375 0 
L 13.875 0 
Q 14.203125 14.84375 19.984375 30.265625 
Q 25.78125 45.703125 35.453125 57.859375 
z
" id="Arial-BoldMT-55"/>
     </defs>
     <use xlink:href="#Arial-BoldMT-48"/>
     <use x="55.615234" xlink:href="#Arial-BoldMT-46"/>
     <use x="83.398438" xlink:href="#Arial-BoldMT-55"/>
     <use x="139.013672" xlink:href="#Arial-BoldMT-49"/>
    </g>
   </g>
   <g id="text_8">
    <!-- 0.55 -->
    <g style="fill:#ffffff;" transform="translate(805.617188 786.985125)scale(0.6 -0.6)">
     <defs>
      <path d="M 4.4375 18.40625 
L 18.109375 19.828125 
Q 18.703125 15.1875 21.578125 12.46875 
Q 24.46875 9.765625 28.21875 9.765625 
Q 32.515625 9.765625 35.5 13.25 
Q 38.484375 16.75 38.484375 23.78125 
Q 38.484375 30.375 35.515625 33.671875 
Q 32.5625 36.96875 27.828125 36.96875 
Q 21.921875 36.96875 17.234375 31.734375 
L 6.109375 33.34375 
L 13.140625 70.609375 
L 49.421875 70.609375 
L 49.421875 57.765625 
L 23.53125 57.765625 
L 21.390625 45.609375 
Q 25.984375 47.90625 30.765625 47.90625 
Q 39.890625 47.90625 46.234375 41.265625 
Q 52.59375 34.625 52.59375 24.03125 
Q 52.59375 15.1875 47.46875 8.25 
Q 40.484375 -1.21875 28.078125 -1.21875 
Q 18.171875 -1.21875 11.921875 4.09375 
Q 5.671875 9.421875 4.4375 18.40625 
z
" id="Arial-BoldMT-53"/>
     </defs>
     <use xlink:href="#Arial-BoldMT-48"/>
     <use x="55.615234" xlink:href="#Arial-BoldMT-46"/>
     <use x="83.398438" xlink:href="#Arial-BoldMT-53"/>
     <use x="139.013672" xlink:href="#Arial-BoldMT-53"/>
    </g>
   </g>
   <g id="text_9">
    <!-- 0.51 -->
    <g style="fill:#ffffff;" transform="translate(964.833188 786.985125)scale(0.6 -0.6)">
     <use xlink:href="#Arial-BoldMT-48"/>
     <use x="55.615234" xlink:href="#Arial-BoldMT-46"/>
     <use x="83.398438" xlink:href="#Arial-BoldMT-53"/>
     <use x="139.013672" xlink:href="#Arial-BoldMT-49"/>
    </g>
   </g>
   <g id="text_10">
    <!-- 0.25 -->
    <g style="fill:#ffffff;" transform="translate(1124.049188 786.985125)scale(0.6 -0.6)">
     <defs>
      <path d="M 50.59375 12.75 
L 50.59375 0 
L 2.484375 0 
Q 3.265625 7.234375 7.171875 13.703125 
Q 11.078125 20.171875 22.609375 30.859375 
Q 31.890625 39.5 33.984375 42.578125 
Q 36.8125 46.828125 36.8125 50.984375 
Q 36.8125 55.5625 34.34375 58.03125 
Q 31.890625 60.5 27.546875 60.5 
Q 23.25 60.5 20.703125 57.90625 
Q 18.171875 55.328125 17.78125 49.3125 
L 4.109375 50.6875 
Q 5.328125 62.015625 11.765625 66.9375 
Q 18.21875 71.875 27.875 71.875 
Q 38.484375 71.875 44.53125 66.15625 
Q 50.59375 60.453125 50.59375 51.953125 
Q 50.59375 47.125 48.859375 42.75 
Q 47.125 38.375 43.359375 33.59375 
Q 40.875 30.421875 34.375 24.453125 
Q 27.875 18.5 26.140625 16.546875 
Q 24.421875 14.59375 23.34375 12.75 
z
" id="Arial-BoldMT-50"/>
     </defs>
     <use xlink:href="#Arial-BoldMT-48"/>
     <use x="55.615234" xlink:href="#Arial-BoldMT-46"/>
     <use x="83.398438" xlink:href="#Arial-BoldMT-50"/>
     <use x="139.013672" xlink:href="#Arial-BoldMT-53"/>
    </g>
   </g>
   <g id="text_11">
    <!-- 0.71 -->
    <g style="fill:#262626;" transform="translate(487.185188 627.769125)scale(0.6 -0.6)">
     <use xlink:href="#Arial-BoldMT-48"/>
     <use x="55.615234" xlink:href="#Arial-BoldMT-46"/>
     <use x="83.398438" xlink:href="#Arial-BoldMT-55"/>
     <use x="139.013672" xlink:href="#Arial-BoldMT-49"/>
    </g>
   </g>
   <g id="text_12">
    <!-- 1 -->
    <g style="fill:#262626;" transform="translate(688.101188 627.769125)scale(0.6 -0.6)">
     <use xlink:href="#Arial-BoldMT-49"/>
    </g>
   </g>
   <g id="text_13">
    <!-- 0.28 -->
    <g style="fill:#ffffff;" transform="translate(805.617188 627.769125)scale(0.6 -0.6)">
     <defs>
      <path d="M 16.015625 38.625 
Q 10.6875 40.875 8.265625 44.796875 
Q 5.859375 48.734375 5.859375 53.421875 
Q 5.859375 61.421875 11.453125 66.640625 
Q 17.046875 71.875 27.34375 71.875 
Q 37.546875 71.875 43.1875 66.640625 
Q 48.828125 61.421875 48.828125 53.421875 
Q 48.828125 48.4375 46.234375 44.546875 
Q 43.65625 40.671875 38.96875 38.625 
Q 44.921875 36.234375 48.015625 31.640625 
Q 51.125 27.046875 51.125 21.046875 
Q 51.125 11.140625 44.796875 4.9375 
Q 38.484375 -1.265625 27.984375 -1.265625 
Q 18.21875 -1.265625 11.71875 3.859375 
Q 4.046875 9.90625 4.046875 20.453125 
Q 4.046875 26.265625 6.921875 31.125 
Q 9.8125 35.984375 16.015625 38.625 
z
M 18.84375 52.4375 
Q 18.84375 48.34375 21.15625 46.046875 
Q 23.484375 43.75 27.34375 43.75 
Q 31.25 43.75 33.59375 46.0625 
Q 35.9375 48.390625 35.9375 52.484375 
Q 35.9375 56.34375 33.609375 58.65625 
Q 31.296875 60.984375 27.484375 60.984375 
Q 23.53125 60.984375 21.1875 58.640625 
Q 18.84375 56.296875 18.84375 52.4375 
z
M 17.578125 21.78125 
Q 17.578125 16.109375 20.484375 12.9375 
Q 23.390625 9.765625 27.734375 9.765625 
Q 31.984375 9.765625 34.765625 12.8125 
Q 37.546875 15.875 37.546875 21.625 
Q 37.546875 26.65625 34.71875 29.703125 
Q 31.890625 32.765625 27.546875 32.765625 
Q 22.515625 32.765625 20.046875 29.296875 
Q 17.578125 25.828125 17.578125 21.78125 
z
" id="Arial-BoldMT-56"/>
     </defs>
     <use xlink:href="#Arial-BoldMT-48"/>
     <use x="55.615234" xlink:href="#Arial-BoldMT-46"/>
     <use x="83.398438" xlink:href="#Arial-BoldMT-50"/>
     <use x="139.013672" xlink:href="#Arial-BoldMT-56"/>
    </g>
   </g>
   <g id="text_14">
    <!-- 0.39 -->
    <g style="fill:#ffffff;" transform="translate(964.833188 627.769125)scale(0.6 -0.6)">
     <defs>
      <path d="M 3.765625 19 
L 17.046875 20.609375 
Q 17.671875 15.53125 20.453125 12.84375 
Q 23.25 10.15625 27.203125 10.15625 
Q 31.453125 10.15625 34.34375 13.375 
Q 37.25 16.609375 37.25 22.078125 
Q 37.25 27.25 34.46875 30.265625 
Q 31.6875 33.296875 27.6875 33.296875 
Q 25.046875 33.296875 21.390625 32.28125 
L 22.90625 43.453125 
Q 28.46875 43.3125 31.390625 45.875 
Q 34.328125 48.4375 34.328125 52.6875 
Q 34.328125 56.296875 32.171875 58.4375 
Q 30.03125 60.59375 26.46875 60.59375 
Q 22.953125 60.59375 20.453125 58.15625 
Q 17.96875 55.71875 17.4375 51.03125 
L 4.78125 53.171875 
Q 6.109375 59.671875 8.765625 63.546875 
Q 11.421875 67.4375 16.1875 69.65625 
Q 20.953125 71.875 26.859375 71.875 
Q 36.96875 71.875 43.0625 65.4375 
Q 48.09375 60.15625 48.09375 53.515625 
Q 48.09375 44.09375 37.796875 38.484375 
Q 43.953125 37.15625 47.625 32.5625 
Q 51.3125 27.984375 51.3125 21.484375 
Q 51.3125 12.0625 44.421875 5.421875 
Q 37.546875 -1.21875 27.296875 -1.21875 
Q 17.578125 -1.21875 11.171875 4.375 
Q 4.78125 9.96875 3.765625 19 
z
" id="Arial-BoldMT-51"/>
      <path d="M 4.546875 16.546875 
L 17.828125 18.015625 
Q 18.3125 13.96875 20.359375 12.015625 
Q 22.40625 10.0625 25.78125 10.0625 
Q 30.03125 10.0625 33 13.96875 
Q 35.984375 17.875 36.8125 30.171875 
Q 31.640625 24.171875 23.875 24.171875 
Q 15.4375 24.171875 9.296875 30.6875 
Q 3.171875 37.203125 3.171875 47.65625 
Q 3.171875 58.546875 9.640625 65.203125 
Q 16.109375 71.875 26.125 71.875 
Q 37.015625 71.875 44 63.453125 
Q 50.984375 55.03125 50.984375 35.75 
Q 50.984375 16.109375 43.703125 7.421875 
Q 36.421875 -1.265625 24.75 -1.265625 
Q 16.359375 -1.265625 11.171875 3.203125 
Q 6 7.671875 4.546875 16.546875 
z
M 35.59375 46.53125 
Q 35.59375 53.171875 32.546875 56.828125 
Q 29.5 60.5 25.484375 60.5 
Q 21.6875 60.5 19.171875 57.5 
Q 16.65625 54.5 16.65625 47.65625 
Q 16.65625 40.71875 19.390625 37.46875 
Q 22.125 34.234375 26.21875 34.234375 
Q 30.171875 34.234375 32.875 37.359375 
Q 35.59375 40.484375 35.59375 46.53125 
z
" id="Arial-BoldMT-57"/>
     </defs>
     <use xlink:href="#Arial-BoldMT-48"/>
     <use x="55.615234" xlink:href="#Arial-BoldMT-46"/>
     <use x="83.398438" xlink:href="#Arial-BoldMT-51"/>
     <use x="139.013672" xlink:href="#Arial-BoldMT-57"/>
    </g>
   </g>
   <g id="text_15">
    <!-- 0.36 -->
    <g style="fill:#ffffff;" transform="translate(1124.049188 627.769125)scale(0.6 -0.6)">
     <defs>
      <path d="M 50.734375 54.046875 
L 37.453125 52.59375 
Q 36.96875 56.6875 34.90625 58.640625 
Q 32.859375 60.59375 29.59375 60.59375 
Q 25.25 60.59375 22.234375 56.6875 
Q 19.234375 52.78125 18.453125 40.4375 
Q 23.578125 46.484375 31.203125 46.484375 
Q 39.796875 46.484375 45.921875 39.9375 
Q 52.046875 33.40625 52.046875 23.046875 
Q 52.046875 12.0625 45.59375 5.421875 
Q 39.15625 -1.21875 29.046875 -1.21875 
Q 18.21875 -1.21875 11.234375 7.203125 
Q 4.25 15.625 4.25 34.8125 
Q 4.25 54.5 11.515625 63.1875 
Q 18.796875 71.875 30.421875 71.875 
Q 38.578125 71.875 43.921875 67.3125 
Q 49.265625 62.75 50.734375 54.046875 
z
M 19.625 24.125 
Q 19.625 17.4375 22.703125 13.796875 
Q 25.78125 10.15625 29.734375 10.15625 
Q 33.546875 10.15625 36.078125 13.125 
Q 38.625 16.109375 38.625 22.90625 
Q 38.625 29.890625 35.890625 33.125 
Q 33.15625 36.375 29.046875 36.375 
Q 25.09375 36.375 22.359375 33.265625 
Q 19.625 30.171875 19.625 24.125 
z
" id="Arial-BoldMT-54"/>
     </defs>
     <use xlink:href="#Arial-BoldMT-48"/>
     <use x="55.615234" xlink:href="#Arial-BoldMT-46"/>
     <use x="83.398438" xlink:href="#Arial-BoldMT-51"/>
     <use x="139.013672" xlink:href="#Arial-BoldMT-54"/>
    </g>
   </g>
   <g id="text_16">
    <!-- 0.55 -->
    <g style="fill:#ffffff;" transform="translate(487.185188 468.553125)scale(0.6 -0.6)">
     <use xlink:href="#Arial-BoldMT-48"/>
     <use x="55.615234" xlink:href="#Arial-BoldMT-46"/>
     <use x="83.398438" xlink:href="#Arial-BoldMT-53"/>
     <use x="139.013672" xlink:href="#Arial-BoldMT-53"/>
    </g>
   </g>
   <g id="text_17">
    <!-- 0.28 -->
    <g style="fill:#ffffff;" transform="translate(646.401188 468.553125)scale(0.6 -0.6)">
     <use xlink:href="#Arial-BoldMT-48"/>
     <use x="55.615234" xlink:href="#Arial-BoldMT-46"/>
     <use x="83.398438" xlink:href="#Arial-BoldMT-50"/>
     <use x="139.013672" xlink:href="#Arial-BoldMT-56"/>
    </g>
   </g>
   <g id="text_18">
    <!-- 1 -->
    <g style="fill:#262626;" transform="translate(847.317188 468.553125)scale(0.6 -0.6)">
     <use xlink:href="#Arial-BoldMT-49"/>
    </g>
   </g>
   <g id="text_19">
    <!-- 0.55 -->
    <g style="fill:#ffffff;" transform="translate(964.833188 468.553125)scale(0.6 -0.6)">
     <use xlink:href="#Arial-BoldMT-48"/>
     <use x="55.615234" xlink:href="#Arial-BoldMT-46"/>
     <use x="83.398438" xlink:href="#Arial-BoldMT-53"/>
     <use x="139.013672" xlink:href="#Arial-BoldMT-53"/>
    </g>
   </g>
   <g id="text_20">
    <!-- -0.03 -->
    <g style="fill:#ffffff;" transform="translate(1114.060125 468.553125)scale(0.6 -0.6)">
     <defs>
      <path d="M 5.609375 19.09375 
L 5.609375 32.8125 
L 32.5625 32.8125 
L 32.5625 19.09375 
z
" id="Arial-BoldMT-45"/>
     </defs>
     <use xlink:href="#Arial-BoldMT-45"/>
     <use x="33.300781" xlink:href="#Arial-BoldMT-48"/>
     <use x="88.916016" xlink:href="#Arial-BoldMT-46"/>
     <use x="116.699219" xlink:href="#Arial-BoldMT-48"/>
     <use x="172.314453" xlink:href="#Arial-BoldMT-51"/>
    </g>
   </g>
   <g id="text_21">
    <!-- 0.51 -->
    <g style="fill:#ffffff;" transform="translate(487.185188 309.337125)scale(0.6 -0.6)">
     <use xlink:href="#Arial-BoldMT-48"/>
     <use x="55.615234" xlink:href="#Arial-BoldMT-46"/>
     <use x="83.398438" xlink:href="#Arial-BoldMT-53"/>
     <use x="139.013672" xlink:href="#Arial-BoldMT-49"/>
    </g>
   </g>
   <g id="text_22">
    <!-- 0.39 -->
    <g style="fill:#ffffff;" transform="translate(646.401188 309.337125)scale(0.6 -0.6)">
     <use xlink:href="#Arial-BoldMT-48"/>
     <use x="55.615234" xlink:href="#Arial-BoldMT-46"/>
     <use x="83.398438" xlink:href="#Arial-BoldMT-51"/>
     <use x="139.013672" xlink:href="#Arial-BoldMT-57"/>
    </g>
   </g>
   <g id="text_23">
    <!-- 0.55 -->
    <g style="fill:#ffffff;" transform="translate(805.617188 309.337125)scale(0.6 -0.6)">
     <use xlink:href="#Arial-BoldMT-48"/>
     <use x="55.615234" xlink:href="#Arial-BoldMT-46"/>
     <use x="83.398438" xlink:href="#Arial-BoldMT-53"/>
     <use x="139.013672" xlink:href="#Arial-BoldMT-53"/>
    </g>
   </g>
   <g id="text_24">
    <!-- 1 -->
    <g style="fill:#262626;" transform="translate(1006.533188 309.337125)scale(0.6 -0.6)">
     <use xlink:href="#Arial-BoldMT-49"/>
    </g>
   </g>
   <g id="text_25">
    <!-- 0.04 -->
    <g style="fill:#ffffff;" transform="translate(1124.049188 309.337125)scale(0.6 -0.6)">
     <defs>
      <path d="M 31.15625 0 
L 31.15625 14.40625 
L 1.859375 14.40625 
L 1.859375 26.421875 
L 32.90625 71.875 
L 44.4375 71.875 
L 44.4375 26.46875 
L 53.328125 26.46875 
L 53.328125 14.40625 
L 44.4375 14.40625 
L 44.4375 0 
z
M 31.15625 26.46875 
L 31.15625 50.921875 
L 14.703125 26.46875 
z
" id="Arial-BoldMT-52"/>
     </defs>
     <use xlink:href="#Arial-BoldMT-48"/>
     <use x="55.615234" xlink:href="#Arial-BoldMT-46"/>
     <use x="83.398438" xlink:href="#Arial-BoldMT-48"/>
     <use x="139.013672" xlink:href="#Arial-BoldMT-52"/>
    </g>
   </g>
   <g id="text_26">
    <!-- 0.25 -->
    <g style="fill:#ffffff;" transform="translate(487.185188 150.121125)scale(0.6 -0.6)">
     <use xlink:href="#Arial-BoldMT-48"/>
     <use x="55.615234" xlink:href="#Arial-BoldMT-46"/>
     <use x="83.398438" xlink:href="#Arial-BoldMT-50"/>
     <use x="139.013672" xlink:href="#Arial-BoldMT-53"/>
    </g>
   </g>
   <g id="text_27">
    <!-- 0.36 -->
    <g style="fill:#ffffff;" transform="translate(646.401188 150.121125)scale(0.6 -0.6)">
     <use xlink:href="#Arial-BoldMT-48"/>
     <use x="55.615234" xlink:href="#Arial-BoldMT-46"/>
     <use x="83.398438" xlink:href="#Arial-BoldMT-51"/>
     <use x="139.013672" xlink:href="#Arial-BoldMT-54"/>
    </g>
   </g>
   <g id="text_28">
    <!-- -0.03 -->
    <g style="fill:#ffffff;" transform="translate(795.628125 150.121125)scale(0.6 -0.6)">
     <use xlink:href="#Arial-BoldMT-45"/>
     <use x="33.300781" xlink:href="#Arial-BoldMT-48"/>
     <use x="88.916016" xlink:href="#Arial-BoldMT-46"/>
     <use x="116.699219" xlink:href="#Arial-BoldMT-48"/>
     <use x="172.314453" xlink:href="#Arial-BoldMT-51"/>
    </g>
   </g>
   <g id="text_29">
    <!-- 0.04 -->
    <g style="fill:#ffffff;" transform="translate(964.833188 150.121125)scale(0.6 -0.6)">
     <use xlink:href="#Arial-BoldMT-48"/>
     <use x="55.615234" xlink:href="#Arial-BoldMT-46"/>
     <use x="83.398438" xlink:href="#Arial-BoldMT-48"/>
     <use x="139.013672" xlink:href="#Arial-BoldMT-52"/>
    </g>
   </g>
   <g id="text_30">
    <!-- 1 -->
    <g style="fill:#262626;" transform="translate(1165.749188 150.121125)scale(0.6 -0.6)">
     <use xlink:href="#Arial-BoldMT-49"/>
    </g>
   </g>
   <g id="text_31">
    <!-- CORTICAL THICKNESS -->
    <g style="fill:#262626;" transform="translate(583.882812 48.96)scale(0.5 -0.5)">
     <defs>
      <path d="M 7.328125 0 
L 7.328125 71.578125 
L 21.78125 71.578125 
L 21.78125 43.40625 
L 50.09375 43.40625 
L 50.09375 71.578125 
L 64.546875 71.578125 
L 64.546875 0 
L 50.09375 0 
L 50.09375 31.296875 
L 21.78125 31.296875 
L 21.78125 0 
z
" id="Arial-BoldMT-72"/>
      <path d="M 7.46875 0 
L 7.46875 71.578125 
L 21.921875 71.578125 
L 21.921875 39.796875 
L 51.125 71.578125 
L 70.5625 71.578125 
L 43.609375 43.703125 
L 72.015625 0 
L 53.328125 0 
L 33.640625 33.59375 
L 21.921875 21.625 
L 21.921875 0 
z
" id="Arial-BoldMT-75"/>
     </defs>
     <use xlink:href="#Arial-BoldMT-67"/>
     <use x="72.216797" xlink:href="#Arial-BoldMT-79"/>
     <use x="150" xlink:href="#Arial-BoldMT-82"/>
     <use x="222.216797" xlink:href="#Arial-BoldMT-84"/>
     <use x="283.300781" xlink:href="#Arial-BoldMT-73"/>
     <use x="311.083984" xlink:href="#Arial-BoldMT-67"/>
     <use x="383.300781" xlink:href="#Arial-BoldMT-65"/>
     <use x="455.517578" xlink:href="#Arial-BoldMT-76"/>
     <use x="514.851562" xlink:href="#Arial-BoldMT-32"/>
     <use x="542.634766" xlink:href="#Arial-BoldMT-84"/>
     <use x="603.71875" xlink:href="#Arial-BoldMT-72"/>
     <use x="675.935547" xlink:href="#Arial-BoldMT-73"/>
     <use x="703.71875" xlink:href="#Arial-BoldMT-67"/>
     <use x="775.935547" xlink:href="#Arial-BoldMT-75"/>
     <use x="848.152344" xlink:href="#Arial-BoldMT-78"/>
     <use x="920.369141" xlink:href="#Arial-BoldMT-69"/>
     <use x="987.068359" xlink:href="#Arial-BoldMT-83"/>
     <use x="1053.767578" xlink:href="#Arial-BoldMT-83"/>
    </g>
   </g>
  </g>
 </g>
 <defs>
  <clipPath id="p3e14723b10">
   <rect height="796.08" width="796.08" x="465.96" y="54.96"/>
  </clipPath>
 </defs>
</svg>
